<?xml version="1.0" encoding="UTF-8" standalone="no"?>
<svg width="139px" height="15px" viewBox="0 0 139 15" version="1.1" xmlns="http://www.w3.org/2000/svg" xmlns:xlink="http://www.w3.org/1999/xlink">
    <!-- Generator: Sketch 45.1 (43504) - http://www.bohemiancoding.com/sketch -->
    <title>logo</title>
    <desc>Created with Sketch.</desc>
    <defs></defs>
    <g id="Page-1" stroke="none" stroke-width="1" fill="none" fill-rule="evenodd">
        <g id="Desktop-HD" transform="translate(-40.000000, -40.000000)" fill-rule="nonzero" fill="#FFFFFF">
            <g id="logo" transform="translate(40.000000, 40.000000)">
                <g id="SvgjsSvg1011">
                    <path d="M64.2,14.46 C68.51,14.46 71.65,11.2 71.65,7.23 C71.65,3.21 68.55,-1.42108547e-14 64.24,-1.42108547e-14 C59.92,-1.42108547e-14 56.79,3.25 56.79,7.23 C56.79,11.24 59.88,14.46 64.2,14.46 Z M20.42,14.46 C24.73,14.46 27.86,11.2 27.86,7.23 C27.86,3.21 24.77,-1.42108547e-14 20.46,-1.42108547e-14 C16.14,-1.42108547e-14 13.01,3.25 13.01,7.23 C13.01,11.24 16.1,14.46 20.42,14.46 L20.42,14.46 Z M5.37,14.22 L8.45,14.22 L8.45,8.65 L13.82,0.24 L10.32,0.24 L6.93,5.85 L3.59,0.24 L0,0.24 L5.37,8.71 L5.37,14.22 Z M80.02,14.46 C82.72,14.46 84.32,13.62 85.75,12.08 L83.8,9.98 C82.7,10.98 81.72,11.62 80.12,11.62 C77.73,11.62 76.07,9.62 76.07,7.23 C76.07,4.79 77.77,2.84 80.12,2.84 C81.72,2.84 82.64,3.41 83.72,4.39 L85.55,2.28 C84.26,1 82.78,0 80.14,0 C75.85,0 72.85,3.25 72.85,7.23 C72.85,11.28 75.91,14.46 80.02,14.46 L80.02,14.46 Z M87.3,14.22 L90.38,14.22 L90.38,9.94 L91.99,8.27 L96.33,14.22 L100.02,14.22 L94.07,6.17 L99.76,0.24 L96.05,0.24 L90.38,6.35 L90.38,0.24 L87.3,0.24 L87.3,14.22 Z M111.85,14.22 L114.89,14.22 L114.89,5.33 L121.66,14.22 L124.27,14.22 L124.27,0.24 L121.24,0.24 L121.24,8.85 L114.69,0.24 L111.85,0.24 L111.85,14.22 Z M35.52,14.44 C39.28,14.44 41.65,12.36 41.65,8.13 L41.65,0.24 L38.58,0.24 L38.58,8.25 C38.58,10.46 37.44,11.6 35.56,11.6 C33.69,11.6 32.55,10.42 32.55,8.15 L32.55,0.24 L29.47,0.24 L29.47,8.23 C29.47,12.34 31.77,14.44 35.52,14.44 L35.52,14.44 Z M43.88,14.22 L46.96,14.22 L46.96,9.74 L49.33,9.74 L52.37,14.22 L55.96,14.22 L52.55,9.22 C54.32,8.57 55.54,7.15 55.54,4.89 C55.54,3.53 55.12,2.44 54.34,1.66 C53.42,0.74 52.05,0.24 50.27,0.24 L43.88,0.24 L43.88,14.22 Z M20.46,11.62 C17.98,11.62 16.22,9.62 16.22,7.23 C16.22,4.79 17.94,2.84 20.42,2.84 C22.89,2.84 24.65,4.83 24.65,7.23 C24.65,9.66 22.93,11.62 20.46,11.62 L20.46,11.62 Z M64.24,11.62 C61.76,11.62 60,9.62 60,7.23 C60,4.79 61.72,2.84 64.2,2.84 C66.67,2.84 68.43,4.83 68.43,7.23 C68.43,9.66 66.71,11.62 64.24,11.62 L64.24,11.62 Z M106.19,14.22 L109.27,14.22 L109.27,0.24 L106.19,0.24 L106.19,14.22 Z M46.96,7.03 L46.96,3.02 L50.01,3.02 C51.51,3.02 52.43,3.69 52.43,5.01 C52.43,6.23 51.57,7.03 50.07,7.03 L46.96,7.03 Z M126.1,7.23 C126.1,3.25 129.1,0 133.39,0 C136.02,0 137.5,1 138.8,2.28 L136.96,4.39 C135.89,3.41 134.97,2.84 133.37,2.84 C131.01,2.84 129.32,4.79 129.32,7.23 C129.32,9.62 130.97,11.62 133.37,11.62 C134.97,11.62 135.95,10.98 137.04,9.98 L139,12.08 C137.56,13.62 135.97,14.46 133.27,14.46 C129.16,14.46 126.1,11.28 126.1,7.23 L126.1,7.23 Z" id="SvgjsPath1013"></path>
                </g>
            </g>
        </g>
    </g>
</svg>